<?xml version="1.0" encoding="utf-8"?>
<!-- Generator: Adobe Illustrator 25.1.0, SVG Export Plug-In . SVG Version: 6.00 Build 0)  -->
<svg version="1.1" id="Layer_1" xmlns="http://www.w3.org/2000/svg" xmlns:xlink="http://www.w3.org/1999/xlink" x="0px" y="0px"
	 viewBox="0 0 80 80" style="enable-background:new 0 0 80 80;" xml:space="preserve" width="200" height="200">
<g>
	<g>
		<g>
			<path d="M6.76,59.94h-1.9v2.12c0,0.25-0.2,0.45-0.45,0.45H1.91v-2.58h2.94v-1.8H0v9.55h1.91v-3.37h2.96
				c1.12,0,1.89-0.77,1.89-1.88v-2.42C6.77,60,6.77,59.97,6.76,59.94z"/>
			<path d="M8.36,58.14v9.55h1.91v-9.55H8.36z"/>
			<path d="M17.1,58.09h-3.2c-1.12,0-1.88,0.77-1.88,1.89v5.88c0,1.12,0.76,1.88,1.88,1.88h3.2c1.12,0,1.89-0.76,1.89-1.88v-5.88
				C19,58.86,18.22,58.09,17.1,58.09z M17.08,65.49c0,0.29-0.17,0.44-0.45,0.44h-2.24c-0.29,0-0.44-0.15-0.44-0.44v-5.15
				c0-0.29,0.15-0.44,0.44-0.44h2.24c0.29,0,0.45,0.15,0.45,0.44V65.49z"/>
			<path d="M20.4,58.14v1.78h2.49v7.77h1.91v-7.77h2.49v-1.78H20.4z"/>
			<path d="M34.25,64.07c0.8-0.22,1.29-0.9,1.29-1.8v-2.24c0-1.11-0.76-1.88-1.88-1.88H28.8v9.55h1.91v-3.55h1.54l1.54,3.55h2.06
				L34.25,64.07z M33.65,61.92c0,0.29-0.17,0.45-0.45,0.45h-2.48v-2.43h2.48c0.29,0,0.45,0.17,0.45,0.45V61.92z"/>
			<path d="M42.28,58.09h-3.2c-1.12,0-1.89,0.77-1.89,1.89v5.88c0,1.12,0.77,1.88,1.89,1.88h3.2c1.12,0,1.88-0.76,1.88-1.88v-5.88
				C44.16,58.86,43.4,58.09,42.28,58.09z M42.25,65.49c0,0.29-0.15,0.44-0.44,0.44h-2.24c-0.29,0-0.45-0.15-0.45-0.44v-5.15
				c0-0.29,0.17-0.44,0.45-0.44h2.24c0.29,0,0.44,0.15,0.44,0.44V65.49z"/>
			<path d="M54.96,58.14l-1.3,6.98l-1.71-6.98h-1.51l-1.72,6.98l-1.3-6.98h-2.03l2.37,9.55h1.89l1.56-6.29l1.57,6.29h1.8l2.37-9.55
				H54.96z"/>
			<path d="M62.95,62.23l-2.47-0.53c-0.29-0.07-0.45-0.17-0.45-0.45v-0.91c0-0.29,0.17-0.44,0.45-0.44h1.91
				c0.29,0,0.44,0.15,0.44,0.44v0.74h1.86v-1.11c0-1.12-0.76-1.89-1.88-1.89H60c-1.12,0-1.88,0.77-1.88,1.89v1.61
				c0,1.06,0.87,1.68,1.9,1.91l2.47,0.53c0.3,0.07,0.45,0.15,0.45,0.44v1.02c0,0.29-0.15,0.44-0.45,0.44h-2.07
				c-0.29,0-0.45-0.15-0.45-0.44v-0.85h-1.85v1.22c0,1.12,0.76,1.88,1.88,1.88h2.96c1.12,0,1.89-0.76,1.89-1.88v-1.72
				C64.86,63.07,63.98,62.45,62.95,62.23z"/>
			<path d="M71.08,61.91l2.93-3.77h-2.23l-3.31,4.49v-4.49h-1.88v9.55h1.88v-2.44l1.34-1.71l2.2,4.16h2.14L71.08,61.91z"/>
			<path d="M75.62,58.14v9.55h1.9v-9.55H75.62z"/>
			<path d="M0,70.21v1.81h2.54v7.92h1.95v-7.92h2.53v-1.81H0z"/>
			<path d="M14.12,76.25c0.81-0.23,1.33-0.92,1.33-1.84v-2.28c0-1.14-0.79-1.92-1.92-1.92H8.57v9.73h1.95v-3.6h1.56l1.57,3.6h2.1
				L14.12,76.25z M13.5,74.06c0,0.3-0.17,0.46-0.46,0.46h-2.52v-2.48h2.52c0.3,0,0.46,0.17,0.46,0.46V74.06z"/>
			<path d="M22.37,70.21H20.1l-3.14,9.73h2.01l0.65-2.19h3.14l0.64,2.19h2.09L22.37,70.21z M20.17,75.92l1.05-3.57l1.03,3.57H20.17z
				"/>
			<path d="M32.66,70.21v6.63l-3.58-6.63h-2.09v9.73h1.82v-6.63l3.57,6.63h2.1v-9.73H32.66z"/>
			<path d="M41.17,74.37l-2.51-0.53c-0.3-0.08-0.46-0.17-0.46-0.46v-0.92c0-0.3,0.17-0.46,0.46-0.46h1.95c0.3,0,0.45,0.17,0.45,0.46
				v0.75h1.89v-1.13c0-1.14-0.77-1.92-1.91-1.92h-2.86c-1.14,0-1.92,0.78-1.92,1.92v1.65c0,1.07,0.9,1.71,1.95,1.95l2.52,0.54
				c0.3,0.07,0.45,0.15,0.45,0.45v1.03c0,0.3-0.15,0.46-0.45,0.46h-2.11c-0.3,0-0.45-0.17-0.45-0.46v-0.86h-1.9v1.24
				c0,1.14,0.79,1.92,1.92,1.92h3.03c1.13,0,1.91-0.78,1.91-1.92v-1.76C43.12,75.25,42.24,74.6,41.17,74.37z"/>
			<path d="M51.77,72.05h-1.93v2.17c0,0.25-0.2,0.45-0.45,0.45h-2.54v-2.62h3v-1.84h-4.94v9.73h1.95v-3.43h3.02
				c1.14,0,1.92-0.79,1.92-1.92v-2.45C51.78,72.11,51.78,72.07,51.77,72.05z"/>
			<path d="M58.46,70.16h-3.25c-1.14,0-1.92,0.78-1.92,1.92v5.99c0,1.14,0.79,1.92,1.92,1.92h3.25c1.14,0,1.92-0.78,1.92-1.92v-5.99
				C60.38,70.94,59.59,70.16,58.46,70.16z M58.43,77.7c0,0.3-0.17,0.46-0.46,0.46h-2.28c-0.3,0-0.46-0.17-0.46-0.46v-5.24
				c0-0.3,0.17-0.46,0.46-0.46h2.28c0.3,0,0.46,0.17,0.46,0.46V77.7z"/>
			<path d="M67.74,76.25c0.81-0.23,1.33-0.92,1.33-1.84v-2.28c0-1.14-0.79-1.92-1.92-1.92h-4.95v9.73h1.95v-3.6h1.56l1.57,3.6h2.1
				L67.74,76.25z M67.12,74.06c0,0.3-0.17,0.46-0.46,0.46h-2.52v-2.48h2.52c0.3,0,0.46,0.17,0.46,0.46V74.06z"/>
			<path d="M70.5,70.21v1.81h2.54v7.92h1.95v-7.92h2.53v-1.81H70.5z"/>
		</g>
	</g>
	<path d="M64.6,12.92v6.46c0,3.57-2.89,6.46-6.46,6.46h-6.46V12.92H64.6V0H51.67H38.75H25.83v12.92h12.92v6.46v6.46H25.83v12.9
		H12.92v-12.9h12.91V12.92H12.92V0.01H0v12.92h12.91v12.9H0v12.92h12.91v12.91h12.92v-12.9h12.92v12.92h12.92V38.76h6.46
		c10.7,0,19.38-8.68,19.38-19.38v-6.46H64.6z"/>
</g>
</svg>
